<svg xmlns="http://www.w3.org/2000/svg" viewBox="0 0 12.65 12.64"><defs><style>.cls-1{fill:#fff;}</style></defs><title>instagram</title><g id="Layer_2" data-name="Layer 2"><g id="Layer_1-2" data-name="Layer 1"><path class="cls-1" d="M7.5,6.42a1.18,1.18,0,0,0-.23-.71,1.21,1.21,0,0,0-1-.5,1.22,1.22,0,0,0-1,.5,1.25,1.25,0,0,0-.23.71,1.21,1.21,0,1,0,2.42,0m.27-1.48H8.93V3.77H7.77ZM9.06,8.53V5.71H8a1.88,1.88,0,1,1-3.48,0h-1V8.53a.67.67,0,0,0,.66.66H8.4a.67.67,0,0,0,.66-.66m.67,0A1.34,1.34,0,0,1,8.4,9.86H4.18A1.34,1.34,0,0,1,2.85,8.53V4.31A1.34,1.34,0,0,1,4.18,3H8.4A1.34,1.34,0,0,1,9.73,4.31V8.53Zm2.92-2.21a6.33,6.33,0,1,0-6.33,6.32,6.33,6.33,0,0,0,6.33-6.32"/></g></g></svg>