<svg xmlns="http://www.w3.org/2000/svg" viewBox="0 0 12.65 12.65"><defs><style>.cls-1{fill:#999;}</style></defs><title>twitter-dark</title><g id="Layer_2" data-name="Layer 2"><g id="Layer_1-2" data-name="Layer 1"><path class="cls-1" d="M9.51,5.05v.2a4.52,4.52,0,0,1-7,3.82,2.36,2.36,0,0,0,.38,0,3.16,3.16,0,0,0,2-.68,1.58,1.58,0,0,1-1.48-1.1l.3,0a1.51,1.51,0,0,0,.42,0A1.6,1.6,0,0,1,2.85,5.72v0a1.46,1.46,0,0,0,.72.19,1.57,1.57,0,0,1-.71-1.32,1.55,1.55,0,0,1,.22-.8A4.5,4.5,0,0,0,6.36,5.43a1.42,1.42,0,0,1,0-.36A1.6,1.6,0,0,1,9.08,4a3,3,0,0,0,1-.39,1.54,1.54,0,0,1-.7.88,2.79,2.79,0,0,0,.91-.25,3.28,3.28,0,0,1-.79.83M6.32,0a6.33,6.33,0,1,0,6.33,6.32A6.32,6.32,0,0,0,6.32,0"/></g></g></svg>