<svg xmlns="http://www.w3.org/2000/svg" xmlns:xlink="http://www.w3.org/1999/xlink" viewBox="0 0 204.25 154.03"><defs><style>.cls-1,.cls-10,.cls-5,.cls-7,.cls-8{fill:none;}.cls-2{clip-path:url(#clip-path);}.cls-3{fill:#fff;}.cls-4{fill:#0070ab;}.cls-5,.cls-8{stroke:#0070ab;}.cls-10,.cls-5,.cls-7,.cls-8{stroke-miterlimit:3.86;}.cls-5{stroke-width:0.92px;}.cls-6{fill:#d7282f;}.cls-10,.cls-7{stroke:#fff;}.cls-7{stroke-width:0.52px;}.cls-10,.cls-8{stroke-width:0.31px;}.cls-9{fill:#ffcf01;}</style><clipPath id="clip-path" transform="translate(0 0)"><rect class="cls-1" width="204.26" height="154.03"/></clipPath></defs><title>vab-logo</title><g id="Layer_2" data-name="Layer 2"><g id="Layer_1-2" data-name="Layer 1"><g class="cls-2"><path class="cls-3" d="M121.78,107.32l.1,0-.1,0m76.07,23.49V111.74s-3.35-1-4-1.19c0-13.41,0-68,0-68l-4.39-1.33a285.66,285.66,0,0,0-35.32-8.08c0-2.44,0-10.12,0-10.12l-9.8-1.63c-1.91-.32-3.53-.59-5.46-.88,0-1.14.09-8.22.09-8.22l-8.78-.92c-2-.21-4.14-.44-6.43-.6a15.76,15.76,0,0,1-6.87-1.89,28.52,28.52,0,0,1-4.21-3A27.51,27.51,0,0,0,106,1.52,24.76,24.76,0,0,0,98.27,0L98,0l-.29,0A24.93,24.93,0,0,0,90,1.51a28.09,28.09,0,0,0-6.72,4.36,28.74,28.74,0,0,1-4.21,3,15.85,15.85,0,0,1-6.86,1.88c-2.28.16-4.35.38-6.36.6L57,12.28l0,5.62s0,1.49,0,2.66c-2.57.35-4.42.66-7.12,1.1L41.79,23V33.13a279.39,279.39,0,0,0-35,8.19L2.44,42.63s0,78.09,0,84.18L0,128.07s0,4,0,4V154l10.24-6.64c3.08-2,5.84-3.7,8.69-5.34l2.54-1.47.66-.37c2.75-1.52,5.69-3.14,8.72-4.61l.25-.13,2.94-1.42c3.45-1.64,7-3.2,11.13-4.85l.28-.12.24-.09,1.21-.47c2.73-1.05,5.12-1.9,7.5-2.67l.32-.11,1.76-.57.69-.21c2.34-.71,4.88-1.47,7.54-2.13l1.49-.38c2.36-.58,4.69-1.09,7.32-1.61l2-.39,6.54-1,2.51-.3c2.46-.31,4.85-.48,7.49-.67l4.43-.31a8.74,8.74,0,0,0,1.14.08h.12c2.08,0,4.15,0,6.32,0h.11a8.22,8.22,0,0,0,1-.06l4.56.32c3.9.28,7.19.61,10.36,1l.1,0c3,.36,11.93,2,14.74,2.79l.12,0c2.1.52,4.17,1,6.33,1.66l.1,0,3.47,1,4.47,1.54c5.51,1.9,10.42,3.82,15.45,6.06l.1.05c2,.85,6.19,2.84,6.19,2.84l3.62,1.85c4.39,2.24,8.63,4.59,12.95,7.19l1.15.69a7.14,7.14,0,0,0,4.17,2.51,9.81,9.81,0,0,0,4.72,0,8.78,8.78,0,0,0,0-16.91" transform="translate(0 0)"/><path class="cls-4" d="M15.21,91.23v-22H18.5V90.94l-3.29.29m10,32.73V71.36a4.51,4.51,0,0,0-4.55-4.6H13.1a4.49,4.49,0,0,0-4.49,4.62v60.3l-2.38,1.23v9.76c3-2,5.93-3.76,9-5.52V95.79l3.29-.4c0,9.65,0,21.86,0,39.87,3.06-1.7,6-3.28,9-4.78V123c-.81.33-1.58.64-2.38,1" transform="translate(0 0)"/><path class="cls-5" d="M15.21,91.23v-22H18.5V90.94Zm10,32.73V71.36a4.51,4.51,0,0,0-4.55-4.6H13.1a4.49,4.49,0,0,0-4.49,4.62v60.3l-2.38,1.23v9.76c3-2,5.93-3.76,9-5.52V95.79l3.29-.4c0,9.65,0,21.86,0,39.87,3.06-1.7,6-3.28,9-4.78V123C26.73,123.31,26,123.62,25.16,124Z" transform="translate(0 0)"/><path class="cls-4" d="M28.93,129.79c4.52-2.2,8.85-4.08,13.35-5.9V108.43l-2.07.48v10.18c-1.17.4-2.28.79-3.45,1.21V73.65h2.13V71.42h-10v2.24H31v48.82c-.71.27-1.37.55-2.08.84Z" transform="translate(0 0)"/><path class="cls-5" d="M28.93,129.79c4.52-2.2,8.85-4.08,13.35-5.9V108.43l-2.07.48v10.18c-1.17.4-2.28.79-3.45,1.21V73.65h2.13V71.42h-10v2.24H31v48.82c-.71.27-1.37.55-2.08.84Z" transform="translate(0 0)"/><path class="cls-4" d="M52,91.83V73.61h2.87v18L52,91.83m8.67,21.44V75.54a4,4,0,0,0-4-4.13H50.11a4,4,0,0,0-3.92,4.19v41.54c-.7.21-1.37.42-2.07.65v5.39c2.65-1,5.17-1.93,7.83-2.79V95.08l2.87-.25v24.64c2.67-.82,5.21-1.57,7.88-2.23v-4.42l-2.08.45" transform="translate(0 0)"/><path class="cls-5" d="M52,91.83V73.61h2.87v18Zm8.67,21.44V75.54a4,4,0,0,0-4-4.13H50.11a4,4,0,0,0-3.92,4.19v41.54c-.7.21-1.37.42-2.07.65v5.39c2.65-1,5.17-1.93,7.83-2.79V95.08l2.87-.25v24.64c2.67-.82,5.21-1.57,7.88-2.23v-4.42Z" transform="translate(0 0)"/><path class="cls-4" d="M74.73,114.65c2-.34,3.84-.62,5.8-.89V78.61c1-1.07,1.9-2.07,2.88-3.08V113.4c2.64-.33,5.18-.51,7.83-.7V109l-2.08.12V71.4H84.44c-1.31,1.36-2.59,2.67-3.91,4.08V71.4H75.81c-1.33,1.38-2.63,2.68-4,4.1V71.4H64v2.19H66.1v38.53l-2.08.42v4.36c2.65-.65,5.18-1.2,7.83-1.72V78.66c1-1.08,1.91-2.08,2.88-3.11Z" transform="translate(0 0)"/><path class="cls-5" d="M74.73,114.65c2-.34,3.84-.62,5.8-.89V78.61c1-1.07,1.9-2.07,2.88-3.08V113.4c2.64-.33,5.18-.51,7.83-.7V109l-2.08.12V71.4H84.44c-1.31,1.36-2.59,2.67-3.91,4.08V71.4H75.81c-1.33,1.38-2.63,2.68-4,4.1V71.4H64v2.19H66.1v38.53l-2.08.42v4.36c2.65-.65,5.18-1.2,7.83-1.72V78.66c1-1.08,1.91-2.08,2.88-3.11Z" transform="translate(0 0)"/><path class="cls-4" d="M102,73.56v35.22H99.1V73.56Zm-4.72,38.89c2.22,0,4.34,0,6.56,0s3.91-3.08,3.91-6.62V75.47a4,4,0,0,0-3.91-4.08H97.26a4,4,0,0,0-3.91,4.08v30.36c0,3.54,1.76,6.62,3.91,6.62" transform="translate(0 0)"/><path class="cls-5" d="M102,73.56v35.22H99.1V73.56Zm-4.72,38.89c2.22,0,4.34,0,6.56,0s3.91-3.08,3.91-6.62V75.47a4,4,0,0,0-3.91-4.08H97.26a4,4,0,0,0-3.91,4.08v30.36C93.35,109.37,95.11,112.45,97.26,112.45Z" transform="translate(0 0)"/><path class="cls-4" d="M122.1,87v18.34c0,2.52-1.69,4.49-3.3,3.91V86.91c1.12,0,2.19,0,3.3.06m-3.3-3V69.19h3.3V80.56a3.4,3.4,0,0,1-3.3,3.4m10,16.5V89.88c0-3.38-2-5.58-4.55-5.85a8.31,8.31,0,0,0,4.55-7.7v-5a4.53,4.53,0,0,0-4.55-4.57H109.82v2.44h2.38v39.47l-2.38-.14v4.21c3.66.26,7.16.59,10.82,1.1,4.5.55,8.12-6.17,8.12-13.37" transform="translate(0 0)"/><path class="cls-5" d="M122.1,87v18.34c0,2.52-1.69,4.49-3.3,3.91V86.91C119.92,86.92,121,87,122.1,87Zm-3.3-3V69.19h3.3V80.56A3.4,3.4,0,0,1,118.8,84Zm10,16.5V89.88c0-3.38-2-5.58-4.55-5.85a8.31,8.31,0,0,0,4.55-7.7v-5a4.53,4.53,0,0,0-4.55-4.57H109.82v2.44h2.38v39.47l-2.38-.14v4.21c3.66.26,7.16.59,10.82,1.1C125.14,114.38,128.76,107.66,128.76,100.46Z" transform="translate(0 0)"/><path class="cls-4" d="M141,73.6v39.86l-2.88-.63V73.59H141m-4.72,43.2c2.22.55,4.34,1.09,6.56,1.72s3.91-3.1,3.91-7.66V75.56a4,4,0,0,0-3.91-4.15h-6.56a4,4,0,0,0-3.91,4.11v32.67c0,4,1.76,8,3.91,8.62" transform="translate(0 0)"/><path class="cls-5" d="M141,73.6v39.86l-2.88-.63V73.59Zm-4.72,43.2c2.22.55,4.34,1.09,6.56,1.72s3.91-3.1,3.91-7.66V75.56a4,4,0,0,0-3.91-4.15h-6.56a4,4,0,0,0-3.91,4.11v32.67C132.37,112.2,134.13,116.22,136.28,116.8Z" transform="translate(0 0)"/><path class="cls-4" d="M168.52,71.43V116c-.05,3.4-1.15,5.36-2.64,4.84-1.32-.48-2.59-.93-3.91-1.38,1.22-2.89,2.43-5.53,3.68-8.2V71.42h-5.8v47.33l-2.88-.94V71.42h-7.83v2.2h2.07v47.52c5.41,1.86,10.59,3.87,16,6.28,3.92,1.66,7.08-7.46,7.08-17.17V73.68h2.07V71.44h-7.83" transform="translate(0 0)"/><path class="cls-5" d="M168.52,71.43V116c-.05,3.4-1.15,5.36-2.64,4.84-1.32-.48-2.59-.93-3.91-1.38,1.22-2.89,2.43-5.53,3.68-8.2V71.42h-5.8v47.33l-2.88-.94V71.42h-7.83v2.2h2.07v47.52c5.41,1.86,10.59,3.87,16,6.28,3.92,1.66,7.08-7.46,7.08-17.17V73.68h2.07V71.44Z" transform="translate(0 0)"/><path class="cls-4" d="M177.43,132.31c4.52,2.3,8.83,4.7,13.34,7.41V117.36l-2.07-.7v14c-1.17-.57-2.28-1.11-3.45-1.66V73.72h2.13V71.45h-9.95v2.25h2.07v52.63l-2.07-.9Z" transform="translate(0 0)"/><path class="cls-5" d="M177.43,132.31c4.52,2.3,8.83,4.7,13.34,7.41V117.36l-2.07-.7v14c-1.17-.57-2.28-1.11-3.45-1.66V73.72h2.13V71.45h-9.95v2.25h2.07v52.63l-2.07-.9Z" transform="translate(0 0)"/><path class="cls-6" d="M15.62,90.41v-22h3.29V90.12l-3.29.29m10,32.73V70.54A4.52,4.52,0,0,0,21,65.93H13.51A4.49,4.49,0,0,0,9,70.55v60.3c-.81.42-1.58.81-2.38,1.24v9.76c3-2,5.93-3.77,9-5.52V95l3.29-.4c0,9.65,0,21.86,0,39.87,3.06-1.7,6-3.28,9-4.78v-7.5c-.81.33-1.58.64-2.38,1" transform="translate(0 0)"/><path class="cls-7" d="M15.62,90.41v-22h3.29V90.12Zm10,32.73V70.54A4.52,4.52,0,0,0,21,65.93H13.51A4.49,4.49,0,0,0,9,70.55v60.3c-.81.42-1.58.81-2.38,1.24v9.76c3-2,5.93-3.77,9-5.52V95l3.29-.4c0,9.65,0,21.86,0,39.87,3.06-1.7,6-3.28,9-4.78v-7.5C27.14,122.49,26.37,122.8,25.57,123.14Z" transform="translate(0 0)"/><path class="cls-6" d="M29.34,129c4.52-2.2,8.85-4.08,13.35-5.9V107.61l-2.07.47v10.19c-1.17.4-2.28.79-3.45,1.21V72.83H39.3V70.6h-10v2.24h2.08v48.82c-.7.27-1.37.55-2.08.84Z" transform="translate(0 0)"/><path class="cls-7" d="M29.34,129c4.52-2.2,8.85-4.08,13.35-5.9V107.61l-2.07.47v10.19c-1.17.4-2.28.79-3.45,1.21V72.83H39.3V70.6h-10v2.24h2.08v48.82c-.7.27-1.37.55-2.08.84Z" transform="translate(0 0)"/><path class="cls-6" d="M52.36,91V72.79h2.87v18L52.36,91M61,112.45V74.72a4,4,0,0,0-4-4.13H50.52a4,4,0,0,0-3.92,4.19v41.54c-.7.21-1.37.42-2.07.65v5.39c2.65-1,5.17-1.93,7.83-2.8V94.26L55.23,94v24.64c2.67-.82,5.21-1.57,7.88-2.23V112c-.7.14-1.37.29-2.08.45" transform="translate(0 0)"/><path class="cls-7" d="M52.36,91V72.79h2.87v18ZM61,112.45V74.72a4,4,0,0,0-4-4.13H50.52a4,4,0,0,0-3.92,4.19v41.54c-.7.21-1.37.42-2.07.65v5.39c2.65-1,5.17-1.93,7.83-2.8V94.26L55.23,94v24.64c2.67-.82,5.21-1.57,7.88-2.23V112C62.41,112.14,61.74,112.29,61,112.45Z" transform="translate(0 0)"/><path class="cls-6" d="M75.14,113.83c2-.35,3.84-.62,5.8-.9V77.79c1-1.07,1.9-2.07,2.88-3.08v37.87c2.64-.33,5.18-.52,7.83-.7V108.2l-2.08.12V70.57H84.85c-1.31,1.36-2.59,2.67-3.91,4.08V70.58H76.22c-1.33,1.37-2.63,2.67-4,4.1v-4.1H64.43v2.19h2.08V111.3l-2.08.42v4.36c2.65-.66,5.18-1.21,7.83-1.72V77.84c1-1.08,1.91-2.08,2.88-3.12Z" transform="translate(0 0)"/><path class="cls-7" d="M75.14,113.83c2-.35,3.84-.62,5.8-.9V77.79c1-1.07,1.9-2.07,2.88-3.08v37.87c2.64-.33,5.18-.52,7.83-.7V108.2l-2.08.12V70.57H84.85c-1.31,1.36-2.59,2.67-3.91,4.08V70.58H76.22c-1.33,1.37-2.63,2.67-4,4.1v-4.1H64.43v2.19h2.08V111.3l-2.08.42v4.36c2.65-.66,5.18-1.21,7.83-1.72V77.84c1-1.08,1.91-2.08,2.88-3.12Z" transform="translate(0 0)"/><path class="cls-6" d="M102.39,72.74V108H99.51V72.74Zm-4.72,38.89c2.22,0,4.34,0,6.56,0s3.91-3.08,3.91-6.62V74.65a4,4,0,0,0-3.91-4.08H97.67a4,4,0,0,0-3.91,4.08V105c0,3.54,1.76,6.62,3.91,6.62" transform="translate(0 0)"/><path class="cls-7" d="M102.39,72.74V108H99.51V72.74Zm-4.72,38.89c2.22,0,4.34,0,6.56,0s3.91-3.08,3.91-6.62V74.65a4,4,0,0,0-3.91-4.08H97.67a4,4,0,0,0-3.91,4.08V105C93.76,108.55,95.52,111.63,97.67,111.63Z" transform="translate(0 0)"/><path class="cls-6" d="M122.51,86.15v18.34c0,2.52-1.69,4.49-3.29,3.91,0-9,0-16,0-22.32l3.3.07m-3.3-3c0-5.5,0-10.08,0-14.77h3.29V79.74a3.39,3.39,0,0,1-3.3,3.4m10,16.5V89.06c0-3.38-2-5.58-4.55-5.85a8.33,8.33,0,0,0,4.55-7.7v-5a4.53,4.53,0,0,0-4.55-4.57H110.23v2.44h2.38v39.47c-.8-.06-1.57-.1-2.38-.14v4.21c3.67.26,7.17.59,10.82,1.1,4.51.55,8.12-6.17,8.12-13.37" transform="translate(0 0)"/><path class="cls-7" d="M122.51,86.15v18.34c0,2.52-1.69,4.49-3.29,3.91,0-9,0-16,0-22.32Zm-3.3-3c0-5.5,0-10.08,0-14.77h3.29V79.74A3.39,3.39,0,0,1,119.21,83.14Zm10,16.5V89.06c0-3.38-2-5.58-4.55-5.85a8.33,8.33,0,0,0,4.55-7.7v-5a4.53,4.53,0,0,0-4.55-4.57H110.23v2.44h2.38v39.47c-.8-.06-1.57-.1-2.38-.14v4.21c3.67.26,7.17.59,10.82,1.1C125.56,113.56,129.17,106.84,129.17,99.64Z" transform="translate(0 0)"/><path class="cls-6" d="M141.41,72.78v39.86l-2.88-.63V72.77h2.88M136.69,116c2.22.55,4.34,1.09,6.56,1.72s3.91-3.1,3.91-7.66V74.74a4,4,0,0,0-3.91-4.15h-6.56a4,4,0,0,0-3.91,4.11v32.67c0,4,1.76,8,3.91,8.62" transform="translate(0 0)"/><path class="cls-7" d="M141.41,72.78v39.86l-2.88-.63V72.77ZM136.69,116c2.22.55,4.34,1.09,6.56,1.72s3.91-3.1,3.91-7.66V74.74a4,4,0,0,0-3.91-4.15h-6.56a4,4,0,0,0-3.91,4.11v32.67C132.78,111.38,134.54,115.4,136.69,116Z" transform="translate(0 0)"/><path class="cls-6" d="M168.93,70.61v44.58c-.05,3.4-1.15,5.35-2.64,4.84-1.32-.48-2.59-.93-3.91-1.39,1.22-2.88,2.43-5.52,3.68-8.19V70.6h-5.8v47.33l-2.88-.94V70.6h-7.83v2.2h2.07v47.52c5.41,1.86,10.59,3.87,16,6.28,3.92,1.66,7.08-7.47,7.08-17.17V72.86h2.07V70.61h-7.83" transform="translate(0 0)"/><path class="cls-7" d="M168.93,70.61v44.58c-.05,3.4-1.15,5.35-2.64,4.84-1.32-.48-2.59-.93-3.91-1.39,1.22-2.88,2.43-5.52,3.68-8.19V70.6h-5.8v47.33l-2.88-.94V70.6h-7.83v2.2h2.07v47.52c5.41,1.86,10.59,3.87,16,6.28,3.92,1.66,7.08-7.47,7.08-17.17V72.86h2.07V70.61Z" transform="translate(0 0)"/><path class="cls-6" d="M177.84,131.49c4.52,2.3,8.84,4.7,13.34,7.41V116.54c-.7-.25-1.37-.47-2.07-.7v13.95l-3.44-1.66V72.9h2.12V70.63h-9.95v2.25h2.07v52.63l-2.07-.9Z" transform="translate(0 0)"/><path class="cls-7" d="M177.84,131.49c4.52,2.3,8.84,4.7,13.34,7.41V116.54c-.7-.25-1.37-.47-2.07-.7v13.95l-3.44-1.66V72.9h2.12V70.63h-9.95v2.25h2.07v52.63l-2.07-.9Z" transform="translate(0 0)"/></g><polygon class="cls-4" points="106.84 93.27 108.12 89.43 104.92 86.96 108.96 86.99 110.32 83.18 111.54 87.03 115.58 87.15 112.3 89.5 113.44 93.38 110.18 90.99 106.84 93.27"/><polygon class="cls-8" points="106.84 93.27 108.12 89.43 104.92 86.96 108.96 86.99 110.32 83.18 111.54 87.03 115.58 87.15 112.3 89.5 113.44 93.38 110.18 90.99 106.84 93.27"/><polygon class="cls-9" points="106.83 92.5 108.11 88.67 104.9 86.2 108.95 86.22 110.31 82.42 111.53 86.27 115.57 86.38 112.28 88.74 113.42 92.62 110.17 90.22 106.83 92.5"/><polygon class="cls-10" points="106.83 92.5 108.11 88.67 104.9 86.2 108.95 86.22 110.31 82.42 111.53 86.27 115.57 86.38 112.28 88.74 113.42 92.62 110.17 90.22 106.83 92.5"/><g class="cls-2"><path class="cls-6" d="M194.42,139.92V139h.63c.32,0,.66.07.66.45s-.35.49-.74.49Zm0,.39H195l.8,1.32h.52l-.87-1.34a.78.78,0,0,0,.79-.83c0-.6-.35-.87-1.07-.87H194v3h.46Zm.56,2.43a2.63,2.63,0,1,0-2.67-2.64,2.63,2.63,0,0,0,2.67,2.64m-2.14-2.64a2.14,2.14,0,1,1,2.14,2.2,2.13,2.13,0,0,1-2.14-2.2" transform="translate(0 0)"/><path class="cls-9" d="M147.56,38.54V28.41c-6.56-1.07-8.5-1.5-15.32-2.39l.09-8c-3.33-.33-6.19-.7-9.52-.93a22,22,0,0,1-9.38-2.67c-4.69-2.66-6.22-5.25-10.36-7.08a21.09,21.09,0,0,0-5.54-1,21,21,0,0,0-5.53,1c-4.14,1.83-5.67,4.42-10.36,7.08a22,22,0,0,1-9.38,2.67c-3.32.23-6.14.6-9.47.93l.08,8.15c-7.35.89-8.8,1.19-15.36,2.26V38.54A278.71,278.71,0,0,0,8.13,47.39L8,62.18h3.13l0-4.86a262.89,262.89,0,0,1,38-8.86V38.33C55.55,37.27,57,37,64.05,36.07L64,27.92c3.22-.32,5.94-.69,9.15-.93a20.54,20.54,0,0,0,9.06-2.66c4.53-2.67,6-5.25,10-7.08a19.24,19.24,0,0,1,5.34-1,19.29,19.29,0,0,1,5.34,1c4,1.83,5.48,4.41,10,7.08A20.54,20.54,0,0,0,121.94,27c3.21.24,6,.61,9.19.93l-.08,8c6.58.89,8.46,1.32,14.79,2.38V48.46a275.76,275.76,0,0,1,38.34,8.75v5h3.06V47.28a294.4,294.4,0,0,0-39.7-8.74" transform="translate(0 0)"/><path class="cls-4" d="M128,57.14a3.19,3.19,0,0,1-.62,1.06,2.12,2.12,0,0,1-.91.55,3.42,3.42,0,0,1-1.12.19,3.67,3.67,0,0,1-1.22-.19,2.07,2.07,0,0,1-.91-.58,2.91,2.91,0,0,1-.58-1.05,5.42,5.42,0,0,1-.22-1.71,6,6,0,0,1,.23-1.77,2.94,2.94,0,0,1,.63-1.11,2.21,2.21,0,0,1,.92-.57,4.15,4.15,0,0,1,2.28,0,2.13,2.13,0,0,1,.91.6,3.08,3.08,0,0,1,.6,1.11,7,7,0,0,1,0,3.45m2.48-6.31a8.89,8.89,0,0,0-10.33,0,5.86,5.86,0,0,0-1.84,4.57A5.86,5.86,0,0,0,120.15,60a8.87,8.87,0,0,0,10.33,0,5.83,5.83,0,0,0,1.84-4.56,5.86,5.86,0,0,0-1.84-4.56" transform="translate(0 0)"/><path class="cls-4" d="M82,57.52c0,1.88-3.4,1.39-3.58,1.36a1.25,1.25,0,0,1-.71-2.11,1.78,1.78,0,0,1,.93-.51A22.44,22.44,0,0,1,82,56.09Zm2.43-7.33a9.76,9.76,0,0,0-5.1-1,18.48,18.48,0,0,0-3.31.35L75,52.1s4.93-.73,6.22.09A1.94,1.94,0,0,1,82,53.85H79.73a9,9,0,0,0-4.29.78,3.55,3.55,0,0,0,1,6.75c.36.06,3.32.57,5.34-.6v.54H86V53.26a3.37,3.37,0,0,0-1.6-3.07" transform="translate(0 0)"/><path class="cls-4" d="M71.11,46,67,57,62.91,46H58.5l5.26,13.13A3.5,3.5,0,0,0,67,61.32h2.38L75.49,46Z" transform="translate(0 0)"/><path class="cls-4" d="M88,48.32v13h1.7A2.35,2.35,0,0,0,92.07,59V46H90.36A2.34,2.34,0,0,0,88,48.32" transform="translate(0 0)"/><path class="cls-4" d="M97.87,53.85c0-.59.29-2,3.11-2s3,1.24,3,2Zm9.39.93a5.45,5.45,0,0,0-1.57-4.15A6.69,6.69,0,0,0,101,49.18c-6.38,0-7.24,4.31-7.24,6.29s.71,6.13,7.93,6.13a26.71,26.71,0,0,0,5.17-.39V58.55a19.94,19.94,0,0,1-4.72.4c-4.14,0-4.3-2.32-4.34-2.86h9.46V54.78" transform="translate(0 0)"/><path class="cls-4" d="M113.85,49.2c-1.93.08-4.61,1.08-4.61,3.87v8.25h4v-7c0-1.82,1.34-2.57,4.41-1.82v-3a11.44,11.44,0,0,0-3-.36l-.87,0" transform="translate(0 0)"/><path class="cls-4" d="M136.13,50.74a1.49,1.49,0,1,1-2.54-1.06,1.51,1.51,0,0,1,2.11,0,1.45,1.45,0,0,1,.43,1.06" transform="translate(0 0)"/><path class="cls-3" d="M135.44,51.53a1.1,1.1,0,1,0-.79.34,1.09,1.09,0,0,0,.79-.34" transform="translate(0 0)"/><path class="cls-4" d="M134.8,50.51s0,0-.05.06a.19.19,0,0,1-.09,0h-.19v-.35h.2l.08,0a.12.12,0,0,1,.05.05.15.15,0,0,1,0,.07.22.22,0,0,1,0,.09m.14.3a.72.72,0,0,0,.19-.14.43.43,0,0,0,.09-.28.4.4,0,0,0,0-.2.41.41,0,0,0-.15-.14l-.18-.06h-.77v1.45h.39v-.51h.09l.41.51h.49Z" transform="translate(0 0)"/><path class="cls-4" d="M86.09,26.86h7.28l1.68,4.53h0l.13.06.43,1.14h0c1.51,0,1.91.47,2,.72a.77.77,0,0,1-.11.67,2.5,2.5,0,0,0-1.68-.46l.63,1.71c-.74.78-1.7,1.94-1.22,2.88.34.68,1.29,1,2.82,1,4.93,0,13.86-3.43,15-3.92a.59.59,0,0,0,.36-.51.69.69,0,0,1,.12,1.31,73.49,73.49,0,0,1-11.1,3.51l-1.91,4.77H94.86c-1.15,0-1.71-.07-2.49-1.82-.41-.92-1.78-4.4-3.17-7.86a45.45,45.45,0,0,0-6.58,2.51.63.63,0,0,1-.33.09.68.68,0,0,1-.66-.68.65.65,0,0,1,0-.2.63.63,0,0,0,.31.1h0a.57.57,0,0,0,.28-.08,48.39,48.39,0,0,1,6.56-2.5l-.41-1,0-.08Z" transform="translate(0 0)"/><path class="cls-4" d="M98.73,32.9a2.19,2.19,0,0,1-.85,2.42c-.18.17-1.76,1.64-1.55,2.28.1.29.55.43,1.37.43a27.63,27.63,0,0,0,5.65-.89l4.12-10.28h-7.28l-2,5.39a1.44,1.44,0,0,1,.54.65" transform="translate(0 0)"/><path class="cls-9" d="M112.82,34a.64.64,0,0,0-.36.08c-6.43,2.76-15.61,4.73-16,3.51C96.23,37,98,35.4,98,35.4a2.32,2.32,0,0,0,.88-2.53c-.37-1-2.16-1.5-3.78-1.48.08.23.26.7.48,1.3h.08c1.28,0,1.79.35,1.91.66s-.22.8-.4,1l-.76.85c-.64.67-1.75,1.91-1.21,3,1.68,3.3,16-2,17.91-2.85a.73.73,0,0,0,.42-.6.7.7,0,0,0-.66-.73m-23.89-.06a46.6,46.6,0,0,0-6.61,2.52.66.66,0,1,1-.61-1.18,61.39,61.39,0,0,1,6.75-2.51c.15.39.31.78.47,1.17" transform="translate(0 0)"/></g></g></g></svg>