<svg xmlns="http://www.w3.org/2000/svg" viewBox="0 0 12.65 12.65"><defs><style>.cls-1{fill:#fff;}</style></defs><title>youtube</title><g id="Layer_2" data-name="Layer 2"><g id="Layer_1-2" data-name="Layer 1"><path class="cls-1" d="M6.48,4.92a.18.18,0,0,0,.06-.14V3.6a.13.13,0,0,0-.06-.11.2.2,0,0,0-.14-.05.19.19,0,0,0-.13.05.12.12,0,0,0,0,.11V4.78a.16.16,0,0,0,0,.14.17.17,0,0,0,.13,0,.2.2,0,0,0,.14,0m-2,1.94H5V6.47H3.62v.39h.46V9.13h.44ZM5.88,9.13h.39v-2H5.88V8.66l-.12.1a.19.19,0,0,1-.11,0,.1.1,0,0,1-.08,0s0,0,0-.1V7.17h-.4V8.81a.47.47,0,0,0,.07.26.26.26,0,0,0,.21.09.46.46,0,0,0,.22-.06,1,1,0,0,0,.23-.19Zm1.41-.46a.26.26,0,0,1,0,.14.16.16,0,0,1-.11,0l-.09,0L7,8.76V7.53l.08-.06.08,0a.14.14,0,0,1,.12.06.21.21,0,0,1,0,.15ZM7.61,9a.49.49,0,0,0,.09-.32V7.63a.53.53,0,0,0-.1-.36.33.33,0,0,0-.28-.13.41.41,0,0,0-.19.05A.67.67,0,0,0,7,7.33V6.47h-.4V9.13H7V9a.48.48,0,0,0,.16.13.46.46,0,0,0,.21,0A.32.32,0,0,0,7.61,9m.7-1.15v-.2a.25.25,0,0,1,0-.17.15.15,0,0,1,.13-.06.14.14,0,0,1,.13.06.25.25,0,0,1,0,.17v.2ZM8.91,9a.61.61,0,0,0,.15-.45V8.47H8.65v.1a.54.54,0,0,1,0,.22.18.18,0,0,1-.14.05.14.14,0,0,1-.13-.06.37.37,0,0,1,0-.21V8.2h.75V7.69a.57.57,0,0,0-.15-.42.53.53,0,0,0-.41-.15.57.57,0,0,0-.43.16.57.57,0,0,0-.17.41v.89A.58.58,0,0,0,8.06,9a.53.53,0,0,0,.41.16A.59.59,0,0,0,8.91,9m1.38-.5A1.42,1.42,0,0,1,8.87,9.94H4A1.41,1.41,0,0,1,2.53,8.53V7.39A1.41,1.41,0,0,1,4,6H8.87a1.42,1.42,0,0,1,1.42,1.42ZM8.61,5.29H8.16V5.05a.92.92,0,0,1-.25.2.63.63,0,0,1-.26.07.26.26,0,0,1-.23-.1.46.46,0,0,1-.08-.29V3.12h.45V4.78a.27.27,0,0,0,0,.11.13.13,0,0,0,.09,0,.27.27,0,0,0,.13,0,.49.49,0,0,0,.13-.12V3.12h.45ZM7,4.75a.56.56,0,0,1-.17.43.68.68,0,0,1-.48.16.63.63,0,0,1-.46-.16.57.57,0,0,1-.18-.44V3.62a.49.49,0,0,1,.18-.4.73.73,0,0,1,.48-.15.62.62,0,0,1,.45.16.5.5,0,0,1,.18.4ZM5.67,2.35,5.09,4.07V5.29h-.5V4.12L4,2.35h.5l.32,1.18h0l.3-1.18Zm7,4a6.33,6.33,0,1,0-6.33,6.33,6.33,6.33,0,0,0,6.33-6.33"/></g></g></svg>